<svg xmlns="http://www.w3.org/2000/svg" width="140" height="140" viewBox="0 0 140 140"><rect width="100%" height="100%" fill="#f2f9fd"/><path fill="#8ecae6" d="M26.94 69.145h1.21q.44 0 .77-.11.33-.12.55-.32.22-.21.33-.51.11-.29.11-.66 0-.35-.11-.63t-.32-.48q-.22-.2-.55-.3-.33-.11-.78-.11h-1.21v3.12Zm-1.61-4.37h2.82q.87 0 1.51.21.63.2 1.05.57.41.36.61.87t.2 1.12q0 .63-.21 1.16-.21.52-.63.9-.42.38-1.05.59-.63.21-1.48.21h-1.21v3.05h-1.61v-8.68Zm8.36 4.89h2.8q0-.28-.08-.54-.08-.25-.24-.45-.17-.19-.41-.3-.25-.11-.58-.11-.65 0-1.01.37-.37.36-.48 1.03Zm3.78.9h-3.81q.04.47.17.82.13.34.35.57.22.22.51.33.3.11.66.11.36 0 .62-.08t.46-.19l.34-.18q.15-.09.28-.09.19 0 .28.14l.43.54q-.25.29-.56.49-.3.19-.63.31-.34.11-.68.16-.35.05-.67.05-.64 0-1.2-.21-.55-.22-.96-.63-.4-.42-.64-1.04-.23-.61-.23-1.42 0-.63.2-1.19.21-.55.59-.96.38-.41.93-.65.55-.24 1.24-.24.58 0 1.07.18.49.19.85.55.35.35.55.87.2.52.2 1.19 0 .33-.07.45t-.28.12Zm2.77-2.89.09.69q.29-.55.68-.87.4-.31.94-.31.43 0 .68.19l-.09 1.11q-.03.1-.09.15-.06.04-.15.04t-.27-.03q-.18-.03-.34-.03-.25 0-.44.08-.19.07-.35.2-.15.14-.27.33-.11.19-.22.44v3.79h-1.48v-6.16h.87q.23 0 .32.08.09.09.12.3Zm7.26.29-.34.53q-.06.1-.12.14-.07.04-.17.04-.11 0-.23-.06-.12-.06-.29-.14-.16-.07-.36-.13-.21-.06-.49-.06-.44 0-.69.18-.25.19-.25.49 0 .2.13.33.13.14.34.24.21.1.48.18.27.08.55.18.28.1.55.22t.49.31q.21.19.34.45.13.27.13.64 0 .44-.16.82-.16.37-.47.65-.32.27-.77.42-.46.16-1.06.16-.32 0-.62-.06-.31-.06-.59-.16-.28-.1-.51-.24-.24-.14-.42-.3l.34-.56q.07-.11.16-.16t.23-.05q.13 0 .26.07.12.08.28.17.16.09.38.17.22.08.56.08.26 0 .45-.07.19-.06.31-.16.13-.1.18-.24.06-.13.06-.28 0-.21-.13-.35-.13-.14-.34-.24-.21-.1-.49-.18-.27-.08-.55-.18-.29-.1-.56-.23-.28-.12-.49-.32-.21-.2-.34-.49-.13-.29-.13-.69 0-.38.15-.72.15-.35.44-.6.29-.26.73-.41.43-.15 1-.15.64 0 1.16.21.52.21.87.55Zm3.91-.76q.68 0 1.24.22.56.22.96.63.4.41.62 1 .21.58.21 1.31 0 .73-.21 1.32-.22.59-.62 1-.4.42-.96.64-.56.22-1.24.22-.69 0-1.26-.22-.56-.22-.96-.64-.4-.41-.62-1-.22-.59-.22-1.32 0-.73.22-1.31.22-.59.62-1 .4-.41.96-.63.57-.22 1.26-.22Zm0 5.2q.76 0 1.13-.52.37-.51.37-1.51 0-.99-.37-1.52-.37-.52-1.13-.52-.78 0-1.16.53-.37.52-.37 1.51t.37 1.51q.38.52 1.16.52Zm5.45-4.84.1.49q.19-.19.4-.35.2-.15.43-.27.23-.11.5-.17.26-.06.57-.06.51 0 .9.17t.65.48q.26.31.4.74.13.43.13.94v3.92h-1.48v-3.92q0-.56-.26-.87-.26-.31-.79-.31-.38 0-.72.17-.33.18-.63.48v4.45h-1.48v-6.16h.9q.29 0 .38.27Zm8.74 4.3v-1.04q-.65.03-1.08.11-.44.08-.71.21-.26.13-.37.29-.12.17-.12.37 0 .39.23.56.23.17.61.17.45 0 .79-.17.33-.16.65-.5Zm-3.14-3.23-.26-.48q1.06-.97 2.56-.97.54 0 .96.18.43.17.72.49.3.31.45.75.15.44.15.96v3.89h-.67q-.21 0-.32-.06-.12-.07-.18-.26l-.14-.44q-.23.21-.45.37t-.46.26q-.24.11-.52.17-.27.06-.6.06-.39 0-.72-.11-.33-.1-.57-.31-.24-.21-.37-.53-.13-.31-.13-.72 0-.24.07-.47.08-.23.26-.44t.46-.39q.28-.19.69-.33.41-.14.96-.22.54-.09 1.25-.11v-.36q0-.62-.27-.91-.26-.3-.76-.3-.36 0-.6.08-.23.09-.41.19-.18.11-.33.19-.15.09-.33.09-.15 0-.26-.08-.11-.09-.18-.19Zm5.99-4.1h1.48v8.92h-1.48v-8.92Zm7.73 4.37h1.01q.45 0 .79-.11.34-.12.56-.32.22-.2.33-.47.11-.28.11-.61 0-.66-.44-1.01-.43-.36-1.33-.36h-1.03v2.88Zm2.99 1.35 2.17 3.2h-1.46q-.41 0-.6-.32l-1.82-2.78q-.1-.16-.23-.22-.12-.07-.36-.07h-.69v3.39h-1.61v-8.68h2.64q.88 0 1.52.19.63.18 1.04.51.4.33.59.79.19.46.19 1.01 0 .44-.12.83-.13.39-.38.71-.24.31-.6.55-.35.24-.81.38.16.09.29.21.13.13.24.3Zm4.05-.59h2.79q0-.28-.08-.54-.08-.25-.24-.45-.16-.19-.41-.3-.25-.11-.58-.11-.64 0-1.01.37-.37.36-.47 1.03Zm3.78.9h-3.81q.03.47.17.82.13.34.34.57.22.22.52.33.29.11.65.11.36 0 .63-.08.26-.08.45-.19.2-.1.34-.18.15-.09.29-.09.18 0 .27.14l.43.54q-.25.29-.55.49-.31.19-.64.31-.33.11-.68.16-.34.05-.67.05-.64 0-1.19-.21-.55-.22-.96-.63-.41-.42-.64-1.04-.24-.61-.24-1.42 0-.63.21-1.19.2-.55.58-.96.38-.41.93-.65.55-.24 1.24-.24.58 0 1.07.18.5.19.85.55.35.35.56.87.2.52.2 1.19 0 .33-.08.45-.07.12-.27.12Zm6.26-2.5-.39.54q-.07.08-.13.13-.07.05-.19.05-.11 0-.22-.07t-.26-.16q-.15-.09-.35-.15-.21-.07-.52-.07-.39 0-.68.14-.29.14-.49.4-.19.27-.29.64-.1.38-.1.85 0 .49.11.88.1.38.3.64.2.26.48.4.28.13.64.13.35 0 .57-.09.22-.08.37-.19.15-.1.26-.19.11-.09.25-.09.18 0 .27.14l.43.54q-.25.29-.54.49-.29.19-.59.31-.31.11-.64.16t-.65.05q-.57 0-1.08-.21-.5-.22-.88-.62-.38-.41-.59-1-.22-.59-.22-1.35 0-.68.19-1.26.2-.58.57-1 .38-.42.94-.66.56-.24 1.28-.24.69 0 1.21.22t.94.64Zm1.03-.77h1.49v6.16h-1.49v-6.16Zm1.69-1.79q0 .19-.08.36-.08.17-.2.29-.13.13-.31.21-.17.07-.37.07-.19 0-.36-.07-.17-.08-.3-.21-.13-.12-.2-.29-.08-.17-.08-.36 0-.2.08-.37.07-.18.2-.3.13-.13.3-.2.17-.08.36-.08.2 0 .37.08.18.07.31.2.12.12.2.3.08.17.08.37Zm2.79 3.59v2.76q.25.31.55.44.3.12.64.12t.61-.12q.27-.13.46-.39t.29-.65q.1-.39.1-.93t-.08-.91q-.09-.38-.25-.61-.17-.23-.4-.34-.23-.11-.52-.11-.46 0-.79.19-.32.2-.61.55Zm-.2-1.53.12.57q.38-.42.86-.69.48-.26 1.13-.26.5 0 .92.21.42.21.72.61t.47.98q.16.59.16 1.34 0 .69-.18 1.28-.19.59-.53 1.02-.35.43-.84.68-.49.24-1.09.24-.52 0-.89-.16-.36-.16-.65-.44v2.52h-1.48v-8.17h.9q.29 0 .38.27Zm6.7 2.1h2.8q0-.28-.08-.54-.08-.25-.24-.45-.16-.19-.41-.3-.25-.11-.58-.11-.65 0-1.01.37-.37.36-.48 1.03Zm3.78.9h-3.81q.04.47.17.82.13.34.35.57.22.22.51.33.3.11.66.11.36 0 .62-.08t.46-.19l.34-.18q.15-.09.28-.09.19 0 .28.14l.43.54q-.25.29-.56.49-.3.19-.63.31-.34.11-.68.16-.35.05-.67.05-.64 0-1.2-.21-.55-.22-.96-.63-.4-.42-.64-1.04-.23-.61-.23-1.42 0-.63.2-1.19.21-.55.59-.96.38-.41.93-.65.55-.24 1.24-.24.58 0 1.07.18.49.19.85.55.35.35.55.87.2.52.2 1.19 0 .33-.07.45t-.28.12Zm5.55-2.6-.33.53q-.06.1-.13.14-.06.04-.16.04-.11 0-.24-.06l-.28-.14q-.16-.07-.37-.13t-.49-.06q-.44 0-.69.18-.25.19-.25.49 0 .2.13.33.13.14.35.24.21.1.48.18.27.08.55.18.28.1.55.22t.48.31q.21.19.34.45.13.27.13.64 0 .44-.16.82-.16.37-.47.65-.31.27-.77.42-.46.16-1.06.16-.32 0-.62-.06t-.58-.16q-.28-.1-.52-.24-.24-.14-.42-.3l.35-.56q.06-.11.15-.16t.23-.05q.14 0 .26.07.13.08.29.17.16.09.38.17.22.08.55.08.27 0 .46-.07.18-.06.31-.16.12-.1.18-.24.05-.13.05-.28 0-.21-.12-.35-.13-.14-.35-.24-.21-.1-.48-.18-.28-.08-.56-.18-.29-.1-.56-.23-.27-.12-.48-.32-.22-.2-.35-.49-.13-.29-.13-.69 0-.38.16-.72.14-.35.44-.6.29-.26.72-.41.44-.15 1.01-.15.63 0 1.15.21.53.21.87.55Z"/></svg>