<svg xmlns="http://www.w3.org/2000/svg" width="600" height="400"><rect width="100%" height="100%" fill="#f2f9fd"/><path fill="#8ecae6" d="M127.78 196.55h4.82q1.78 0 3.1-.44t2.2-1.27q.87-.83 1.3-2.02.44-1.19.44-2.65 0-1.39-.44-2.52-.43-1.13-1.29-1.92-.87-.79-2.19-1.21-1.32-.42-3.12-.42h-4.82v12.45Zm-6.46-17.44h11.28q3.48 0 6.03.81 2.54.82 4.2 2.28 1.65 1.47 2.46 3.51.8 2.04.8 4.46 0 2.52-.84 4.62t-2.52 3.61q-1.68 1.51-4.21 2.35-2.53.84-5.92.84h-4.82v12.22h-6.46v-34.7Zm33.46 19.56h11.18q0-1.16-.32-2.18-.32-1.02-.97-1.78-.65-.77-1.65-1.22-.99-.44-2.31-.44-2.57 0-4.05 1.46-1.47 1.47-1.88 4.16Zm15.12 3.57h-15.24q.14 1.9.67 3.28t1.39 2.28q.87.9 2.06 1.34 1.18.45 2.62.45 1.44 0 2.49-.34 1.04-.34 1.82-.74.78-.41 1.37-.75.59-.33 1.14-.33.74 0 1.1.55l1.71 2.16q-.99 1.15-2.21 1.93t-2.56 1.25q-1.33.47-2.71.66-1.38.19-2.67.19-2.57 0-4.78-.85-2.21-.85-3.84-2.52t-2.57-4.13q-.93-2.46-.93-5.7 0-2.52.81-4.74.82-2.22 2.34-3.86 1.53-1.65 3.72-2.61 2.2-.96 4.96-.96 2.33 0 4.29.75 1.97.74 3.39 2.17 1.41 1.43 2.22 3.5.8 2.08.8 4.74 0 1.35-.29 1.81-.28.47-1.1.47Zm11.06-11.57.36 2.79q1.16-2.21 2.74-3.47 1.58-1.26 3.74-1.26 1.71 0 2.74.74l-.38 4.44q-.12.44-.35.62-.23.18-.61.18-.36 0-1.07-.12-.71-.12-1.38-.12-.99 0-1.75.28-.77.29-1.38.83-.62.54-1.08 1.31-.47.77-.88 1.75v15.17h-5.93v-24.62h3.48q.91 0 1.27.32t.48 1.16Zm29.04 1.18-1.34 2.14q-.24.38-.5.54-.27.15-.68.15-.43 0-.92-.24-.49-.24-1.14-.54-.65-.3-1.48-.54-.82-.24-1.95-.24-1.75 0-2.75.75-1 .74-1 1.94 0 .79.52 1.33t1.37.95q.85.41 1.93.73 1.08.33 2.2.71 1.11.38 2.19.88 1.08.49 1.93 1.24.86.76 1.37 1.82.52 1.05.52 2.54 0 1.78-.64 3.28-.63 1.5-1.88 2.59-1.25 1.09-3.09 1.7-1.83.61-4.23.61-1.27 0-2.49-.22-1.21-.23-2.32-.64-1.12-.41-2.07-.96-.95-.55-1.67-1.2l1.37-2.26q.27-.4.63-.62.36-.22.91-.22t1.04.32q.49.31 1.14.67.65.36 1.53.67.87.31 2.22.31 1.05 0 1.81-.25.75-.25 1.25-.66.49-.41.72-.95.22-.54.22-1.11 0-.87-.51-1.42-.52-.55-1.37-.96-.85-.41-1.94-.73-1.1-.33-2.24-.71-1.14-.38-2.23-.9t-1.94-1.31q-.85-.79-1.37-1.94-.52-1.15-.52-2.79 0-1.51.6-2.88.6-1.36 1.77-2.38 1.16-1.02 2.9-1.64 1.74-.61 4.02-.61 2.55 0 4.63.84 2.09.84 3.48 2.21Zm15.63-3.05q2.73 0 4.98.89 2.24.89 3.84 2.52 1.59 1.63 2.46 3.98.86 2.36.86 5.26 0 2.93-.86 5.28-.87 2.35-2.46 4.01-1.6 1.65-3.84 2.54-2.25.89-4.98.89-2.76 0-5.02-.89-2.25-.89-3.85-2.54-1.6-1.66-2.47-4.01-.88-2.35-.88-5.28 0-2.9.88-5.26.87-2.35 2.47-3.98t3.85-2.52q2.26-.89 5.02-.89Zm0 20.81q3.07 0 4.55-2.06 1.47-2.07 1.47-6.05 0-3.99-1.47-6.07-1.48-2.09-4.55-2.09-3.12 0-4.62 2.1t-1.5 6.06q0 3.96 1.5 6.03 1.5 2.08 4.62 2.08Zm21.81-19.34.41 1.94q.75-.74 1.57-1.38.83-.64 1.76-1.08.92-.44 1.98-.7 1.05-.25 2.3-.25 2.02 0 3.58.69 1.56.68 2.6 1.92 1.04 1.23 1.58 2.95.54 1.71.54 3.78v15.67h-5.92v-15.67q0-2.26-1.04-3.49-1.03-1.24-3.14-1.24-1.54 0-2.88.7-1.34.69-2.54 1.89v17.81h-5.93v-24.62h3.62q1.15 0 1.51 1.08Zm34.95 17.18v-4.15q-2.57.12-4.32.44-1.75.33-2.81.83-1.06.5-1.51 1.18-.46.67-.46 1.46 0 1.56.93 2.23.92.67 2.41.67 1.82 0 3.15-.66 1.34-.66 2.61-2Zm-12.53-12.94-1.06-1.89q4.25-3.89 10.23-3.89 2.16 0 3.86.71 1.71.71 2.88 1.97 1.18 1.26 1.79 3.01.61 1.75.61 3.84v15.55h-2.69q-.84 0-1.29-.25-.46-.25-.72-1.02l-.53-1.78q-.94.84-1.82 1.48-.89.63-1.85 1.07-.96.43-2.05.66-1.1.22-2.42.22-1.56 0-2.88-.42-1.32-.42-2.28-1.26-.96-.84-1.48-2.08-.53-1.25-.53-2.91 0-.93.31-1.86.31-.92 1.02-1.76t1.84-1.59q1.12-.74 2.77-1.29 1.64-.55 3.83-.9 2.18-.35 4.99-.42v-1.44q0-2.47-1.06-3.66-1.05-1.19-3.05-1.19-1.44 0-2.38.34-.95.33-1.67.75t-1.31.76q-.59.33-1.31.33-.62 0-1.05-.32-.44-.32-.7-.76Zm23.95-16.36h5.93v35.66h-5.93v-35.66Zm30.91 17.47h4.04q1.82 0 3.18-.46 1.35-.45 2.23-1.26.87-.8 1.31-1.91.43-1.1.43-2.42 0-2.64-1.74-4.06-1.74-1.41-5.32-1.41h-4.13v11.52Zm11.96 5.37 8.68 12.82h-5.83q-1.65 0-2.4-1.3l-7.29-11.11q-.41-.62-.9-.89-.5-.26-1.46-.26h-2.76v13.56h-6.45v-34.7h10.58q3.53 0 6.06.73t4.15 2.05q1.62 1.32 2.39 3.16.77 1.83.77 4.04 0 1.75-.52 3.31-.51 1.56-1.48 2.83-.98 1.28-2.4 2.24-1.43.96-3.26 1.51.63.36 1.16.85.52.49.96 1.16Zm16.2-2.32h11.18q0-1.16-.32-2.18-.33-1.02-.98-1.78-.64-.77-1.64-1.22-1-.44-2.32-.44-2.56 0-4.04 1.46-1.48 1.47-1.88 4.16Zm15.12 3.57h-15.24q.14 1.9.67 3.28t1.39 2.28q.86.9 2.05 1.34 1.19.45 2.63.45t2.48-.34q1.05-.34 1.83-.74.78-.41 1.37-.75.58-.33 1.14-.33.74 0 1.1.55l1.7 2.16q-.98 1.15-2.2 1.93-1.23.78-2.56 1.25t-2.71.66q-1.38.19-2.68.19-2.57 0-4.77-.85-2.21-.85-3.84-2.52-1.64-1.67-2.57-4.13-.94-2.46-.94-5.7 0-2.52.82-4.74.81-2.22 2.34-3.86 1.52-1.65 3.72-2.61 2.19-.96 4.95-.96 2.33 0 4.3.75 1.97.74 3.38 2.17 1.42 1.43 2.22 3.5.81 2.08.81 4.74 0 1.35-.29 1.81-.29.47-1.1.47Zm25.03-10.01-1.56 2.16q-.27.34-.52.53t-.73.19q-.46 0-.89-.27-.43-.28-1.03-.63-.6-.34-1.43-.62-.83-.28-2.05-.28-1.56 0-2.74.57-1.17.56-1.95 1.62-.78 1.05-1.17 2.55-.38 1.5-.38 3.4 0 1.97.42 3.5.42 1.54 1.21 2.58.79 1.05 1.92 1.59t2.55.54q1.41 0 2.29-.35.87-.35 1.47-.77.6-.42 1.05-.77.44-.34.99-.34.72 0 1.08.55l1.71 2.16q-.99 1.15-2.14 1.93-1.15.78-2.39 1.25-1.23.47-2.54.66-1.31.19-2.6.19-2.28 0-4.3-.85t-3.53-2.49q-1.51-1.63-2.39-3.99-.87-2.37-.87-5.39 0-2.71.78-5.03.78-2.31 2.29-4.01 1.51-1.69 3.74-2.65 2.24-.96 5.14-.96 2.76 0 4.84.89 2.07.89 3.73 2.54Zm4.13-3.04h5.95v24.62h-5.95v-24.62Zm6.76-7.18q0 .77-.31 1.44-.31.67-.83 1.18-.51.5-1.21.8-.69.3-1.49.3-.76 0-1.45-.3-.68-.3-1.19-.8-.5-.51-.8-1.18-.3-.67-.3-1.44 0-.79.3-1.49.3-.69.8-1.2.51-.5 1.19-.8.69-.3 1.45-.3.8 0 1.49.3.7.3 1.21.8.52.51.83 1.2.31.7.31 1.49Zm11.16 14.38v11.04q1.01 1.22 2.2 1.72 1.19.51 2.58.51 1.34 0 2.42-.51 1.08-.5 1.84-1.53t1.16-2.61q.41-1.57.41-3.7 0-2.16-.35-3.66-.34-1.5-.99-2.44-.65-.94-1.57-1.37-.93-.43-2.1-.43-1.85 0-3.15.78-1.29.78-2.45 2.2Zm-.79-6.12.48 2.28q1.51-1.71 3.43-2.76 1.92-1.06 4.52-1.06 2.01 0 3.68.84 1.67.84 2.88 2.44 1.21 1.59 1.87 3.93.66 2.34.66 5.37 0 2.76-.74 5.11-.75 2.35-2.13 4.08t-3.33 2.7q-1.96.97-4.38.97-2.07 0-3.53-.64-1.46-.63-2.62-1.76v10.08h-5.92v-32.66h3.62q1.15 0 1.51 1.08Zm26.81 8.4h11.18q0-1.16-.32-2.18-.32-1.02-.97-1.78-.65-.77-1.65-1.22-.99-.44-2.31-.44-2.57 0-4.05 1.46-1.47 1.47-1.88 4.16Zm15.12 3.57h-15.24q.14 1.9.67 3.28t1.39 2.28q.87.9 2.06 1.34 1.18.45 2.62.45 1.44 0 2.49-.34 1.04-.34 1.82-.74.78-.41 1.37-.75.59-.33 1.14-.33.74 0 1.1.55l1.71 2.16q-.99 1.15-2.21 1.93t-2.56 1.25q-1.33.47-2.71.66-1.38.19-2.67.19-2.57 0-4.78-.85-2.21-.85-3.84-2.52t-2.57-4.13q-.93-2.46-.93-5.7 0-2.52.81-4.74.82-2.22 2.34-3.86 1.53-1.65 3.72-2.61 2.2-.96 4.96-.96 2.33 0 4.29.75 1.97.74 3.39 2.17 1.41 1.43 2.22 3.5.8 2.08.8 4.74 0 1.35-.29 1.81-.28.47-1.1.47Zm22.2-10.39-1.34 2.14q-.24.38-.51.54-.26.15-.67.15-.43 0-.92-.24-.5-.24-1.14-.54-.65-.3-1.48-.54-.83-.24-1.96-.24-1.75 0-2.74.75-1 .74-1 1.94 0 .79.52 1.33.51.54 1.36.95.86.41 1.94.73 1.08.33 2.19.71 1.12.38 2.2.88 1.08.49 1.93 1.24.85.76 1.37 1.82.51 1.05.51 2.54 0 1.78-.63 3.28-.64 1.5-1.89 2.59-1.24 1.09-3.08 1.7-1.84.61-4.24.61-1.27 0-2.48-.22-1.21-.23-2.33-.64-1.11-.41-2.06-.96t-1.67-1.2l1.37-2.26q.26-.4.62-.62.36-.22.91-.22.56 0 1.05.32.49.31 1.14.67.65.36 1.52.67.88.31 2.22.31 1.06 0 1.81-.25.76-.25 1.25-.66.49-.41.72-.95.23-.54.23-1.11 0-.87-.52-1.42-.51-.55-1.36-.96-.86-.41-1.95-.73-1.09-.33-2.23-.71-1.14-.38-2.23-.9t-1.95-1.31q-.85-.79-1.36-1.94-.52-1.15-.52-2.79 0-1.51.6-2.88.6-1.36 1.76-2.38 1.17-1.02 2.91-1.64 1.74-.61 4.02-.61 2.54 0 4.63.84t3.48 2.21Z"/></svg>